<?xml version="1.0" standalone="no"?>
<!DOCTYPE svg PUBLIC "-//W3C//DTD SVG 20010904//EN"
 "http://www.w3.org/TR/2001/REC-SVG-20010904/DTD/svg10.dtd">
<svg version="1.0" xmlns="http://www.w3.org/2000/svg"
 width="800.000000pt" height="800.000000pt" viewBox="0 0 800.000000 800.000000"
 preserveAspectRatio="xMidYMid meet">
<metadata>
Created by potrace 1.14, written by Peter Selinger 2001-2017
</metadata>
<g transform="translate(0.000000,800.000000) scale(0.100000,-0.100000)"
fill="#000000" stroke="none">
<path d="M3948 7795 c-2 -1 -77 -5 -168 -9 -91 -4 -178 -8 -195 -10 -16 -2
-59 -7 -95 -10 -55 -6 -183 -27 -315 -51 -16 -4 -82 -19 -145 -35 -312 -78
-642 -216 -920 -385 -83 -50 -244 -161 -276 -190 -7 -5 -31 -26 -55 -45 -139
-111 -337 -313 -385 -391 -55 -92 -45 -187 30 -260 56 -55 125 -72 208 -49 35
10 67 39 230 210 220 230 570 454 933 596 240 93 567 171 800 189 39 3 93 8
120 10 55 5 439 6 495 1 171 -15 282 -29 375 -46 28 -5 61 -12 75 -14 47 -8
135 -28 205 -47 428 -111 753 -269 1150 -559 138 -101 172 -120 221 -124 88
-8 179 48 209 129 25 64 17 143 -19 190 -82 107 -486 380 -766 516 -314 153
-690 273 -1010 324 -19 3 -46 8 -60 10 -32 6 -90 14 -160 21 -30 2 -71 7 -90
9 -19 3 -107 8 -195 11 -88 3 -168 7 -177 8 -9 2 -18 3 -20 1z"/>
<path d="M3738 7065 c-2 -1 -38 -5 -80 -9 -93 -8 -155 -15 -186 -22 -13 -3
-43 -7 -65 -10 -23 -3 -106 -21 -183 -39 -274 -65 -514 -158 -759 -295 -76
-42 -290 -189 -373 -255 -189 -153 -456 -447 -672 -740 -113 -153 -274 -396
-305 -460 -88 -179 64 -362 249 -299 58 20 73 38 222 259 149 223 260 375 374
511 93 111 294 315 385 390 33 27 62 51 65 54 35 38 287 192 410 252 222 107
535 198 760 222 30 3 64 8 75 10 39 8 241 18 360 18 137 0 304 -12 390 -28 10
-2 37 -6 60 -9 22 -4 56 -10 75 -15 19 -5 46 -11 60 -14 14 -3 36 -7 50 -10
37 -8 250 -76 285 -91 331 -142 522 -252 770 -445 142 -110 411 -375 545 -536
57 -70 118 -140 134 -157 83 -83 207 -77 292 15 58 62 69 141 30 223 -57 123
-394 493 -652 715 -55 48 -229 177 -319 237 -408 272 -883 455 -1320 509 -27
3 -61 8 -75 11 -25 6 -596 14 -602 8z"/>
<path d="M3829 6336 c-2 -2 -44 -7 -94 -10 -265 -19 -502 -85 -762 -212 -123
-60 -280 -153 -347 -205 -286 -220 -518 -479 -732 -814 -28 -44 -91 -142 -139
-219 -172 -269 -290 -402 -532 -597 -10 -9 -51 -36 -90 -61 -101 -65 -133
-119 -129 -214 3 -59 24 -102 67 -138 76 -64 153 -72 243 -26 50 26 126 74
161 102 85 67 132 106 145 118 200 184 306 309 445 523 323 499 402 605 574
777 201 201 410 346 603 420 29 11 62 25 73 30 61 29 293 83 420 98 144 17
466 7 605 -18 30 -5 67 -11 81 -14 75 -12 311 -85 326 -99 3 -4 12 -7 19 -7
23 0 197 -87 290 -146 240 -151 491 -409 640 -660 103 -172 193 -390 218 -524
19 -101 14 -412 -9 -556 -2 -17 -7 -57 -11 -90 -3 -32 -7 -61 -9 -64 -2 -3 -6
-30 -10 -60 -3 -30 -10 -80 -15 -110 -5 -30 -12 -73 -15 -95 -3 -22 -10 -69
-16 -105 -12 -76 -15 -99 -23 -161 -4 -25 -9 -57 -11 -70 -27 -171 -38 -431
-23 -559 20 -166 109 -383 232 -565 107 -157 202 -265 369 -419 111 -103 278
-74 338 59 36 79 17 160 -56 240 -111 120 -152 165 -171 188 -156 181 -251
352 -287 512 -13 57 -15 236 -3 330 16 130 27 213 30 235 2 14 7 46 10 71 4
25 9 57 11 70 9 54 46 297 51 339 2 25 7 52 9 60 2 8 7 40 10 70 3 30 8 62 10
70 18 70 27 497 13 626 -16 151 -92 368 -203 580 -57 111 -177 301 -229 365
-12 14 -32 40 -46 59 -37 50 -106 126 -185 205 -306 306 -704 521 -1140 615
-92 20 -115 24 -195 35 -25 3 -61 8 -80 11 -45 6 -425 15 -431 10z"/>
<path d="M3898 5615 c-2 -1 -34 -5 -73 -9 -81 -7 -124 -14 -180 -27 -22 -5
-51 -12 -65 -15 -189 -39 -448 -168 -638 -316 -71 -55 -269 -248 -317 -308
-146 -182 -230 -319 -379 -616 -128 -256 -205 -362 -416 -574 -172 -172 -403
-359 -653 -529 -154 -105 -196 -165 -181 -259 20 -127 151 -211 268 -172 65
21 437 279 570 395 6 6 43 37 81 69 109 92 364 352 438 446 104 131 147 200
252 405 54 105 116 222 138 260 195 342 420 566 711 709 82 40 225 89 295 100
108 18 294 24 366 12 17 -2 50 -7 75 -11 237 -36 508 -184 700 -382 186 -191
282 -390 315 -653 8 -57 8 -250 0 -315 -15 -142 -21 -187 -30 -235 -3 -14 -7
-41 -10 -60 -10 -66 -27 -155 -51 -279 -13 -68 -27 -145 -30 -170 -3 -25 -8
-48 -9 -51 -2 -3 -6 -26 -10 -50 -3 -25 -10 -70 -15 -100 -30 -174 -32 -454
-5 -602 3 -16 7 -38 9 -50 2 -13 7 -41 11 -63 19 -107 81 -313 122 -405 73
-164 136 -268 235 -386 115 -137 227 -222 408 -311 242 -118 346 -124 437 -26
55 59 68 146 33 218 -30 62 -41 72 -136 116 -49 22 -118 54 -154 71 -184 86
-331 244 -422 453 -34 77 -83 223 -93 275 -3 14 -7 36 -10 50 -3 14 -7 35 -10
48 -2 13 -6 31 -9 40 -34 113 -21 430 28 678 2 12 7 39 10 60 4 22 20 109 37
194 17 85 32 171 35 190 2 19 9 60 14 90 6 30 13 75 16 100 3 25 7 56 10 70 7
45 18 223 17 295 0 76 -12 250 -18 268 -2 7 -6 28 -9 47 -10 67 -47 195 -83
285 -195 491 -686 888 -1237 1000 -43 9 -102 18 -130 21 -57 6 -254 13 -258 9z"/>
<path d="M6565 5021 c-90 -22 -154 -91 -162 -174 -4 -45 2 -75 42 -193 26 -76
49 -146 50 -154 36 -159 49 -229 60 -320 4 -30 9 -62 10 -71 18 -95 25 -496
12 -689 -15 -215 -47 -448 -94 -685 -32 -163 -33 -239 -2 -294 62 -112 211
-137 309 -53 53 45 75 92 95 207 2 11 6 31 9 45 3 14 14 70 25 125 19 100 24
126 36 220 4 28 9 61 11 75 2 14 6 54 9 90 4 36 8 75 10 88 25 149 25 713 0
902 -2 14 -6 48 -9 77 -6 49 -40 244 -51 288 -2 11 -11 47 -20 80 -8 33 -17
67 -19 75 -18 71 -74 218 -96 254 -34 53 -82 90 -135 105 -44 12 -47 12 -90 2z"/>
<path d="M3840 4853 c-263 -45 -503 -185 -663 -388 -63 -80 -98 -139 -207
-351 -136 -263 -217 -405 -308 -539 -42 -60 -78 -112 -81 -115 -3 -3 -24 -27
-46 -55 -208 -261 -498 -508 -1114 -950 -211 -151 -364 -266 -379 -284 -46
-57 -59 -128 -35 -195 35 -103 111 -146 239 -137 36 2 388 245 779 536 160
120 203 154 354 280 174 145 419 398 533 550 4 6 18 24 32 40 41 52 196 292
196 304 0 6 5 11 10 11 6 0 10 4 10 10 0 5 13 31 28 57 16 27 69 125 117 218
186 359 207 390 320 475 289 215 653 141 812 -166 71 -137 95 -223 99 -351 4
-165 -30 -292 -132 -496 -47 -94 -165 -292 -200 -337 -7 -8 -49 -64 -95 -125
-75 -100 -239 -295 -354 -420 -160 -173 -532 -534 -697 -677 -13 -11 -34 -29
-48 -41 -14 -12 -57 -49 -95 -82 -39 -33 -72 -63 -75 -66 -3 -3 -43 -36 -90
-74 -47 -38 -87 -72 -90 -75 -3 -3 -36 -30 -75 -60 -38 -30 -72 -57 -75 -60
-11 -12 -153 -122 -290 -225 -180 -135 -236 -188 -251 -234 -61 -180 122 -337
292 -251 34 18 387 278 425 314 6 6 24 20 40 31 27 19 340 274 393 320 14 12
62 53 106 91 44 38 82 71 85 75 3 3 30 27 60 54 202 177 595 560 752 735 194
216 369 441 488 630 40 63 81 127 91 141 61 90 209 434 224 522 3 18 11 50 18
72 6 23 11 110 11 210 0 193 -17 285 -84 452 -97 241 -295 459 -504 553 -166
75 -358 102 -526 73z"/>
<path d="M3924 4023 c-58 -7 -104 -61 -178 -204 -173 -334 -363 -603 -681
-964 -101 -114 -461 -477 -568 -572 -45 -40 -101 -90 -123 -110 -23 -21 -79
-69 -125 -108 -45 -38 -90 -77 -98 -85 -26 -24 -339 -271 -426 -336 -44 -32
-84 -62 -90 -67 -5 -4 -59 -44 -120 -90 -60 -45 -118 -96 -128 -114 -23 -41
-33 -130 -18 -174 24 -75 116 -138 199 -139 68 0 118 30 394 237 124 93 402
312 467 368 14 12 78 67 141 121 63 54 120 103 126 109 598 547 953 956 1293
1490 18 28 69 123 114 213 73 148 81 169 81 220 -1 82 -42 155 -107 189 -30
15 -101 23 -153 16z"/>
<path d="M4545 2381 c-73 -35 -114 -87 -159 -201 -52 -134 -77 -267 -78 -420
-1 -215 33 -359 133 -565 55 -113 96 -179 187 -294 115 -145 384 -386 469
-420 79 -32 190 0 237 67 35 52 44 81 42 139 -2 64 -34 114 -118 184 -137 112
-301 282 -365 378 -54 81 -120 219 -142 300 -15 53 -20 101 -19 198 0 138 14
211 61 315 48 107 45 182 -10 256 -51 68 -164 98 -238 63z"/>
<path d="M3580 1249 c-96 -15 -258 -101 -392 -208 -119 -94 -341 -320 -377
-383 -64 -110 -26 -229 91 -289 46 -23 118 -25 164 -3 19 9 99 80 178 158 201
199 314 281 427 311 40 11 54 10 97 -4 125 -43 218 -170 312 -428 51 -138 110
-193 210 -193 98 0 177 59 204 152 17 56 0 144 -55 282 -87 221 -200 378 -351
491 -51 38 -176 98 -232 112 -35 8 -228 10 -276 2z"/>
</g>
</svg>
